<svg xmlns="http://www.w3.org/2000/svg" xmlns:xlink="http://www.w3.org/1999/xlink" width="1512" zoomAndPan="magnify" viewBox="0 0 1134 641.24998" height="855" preserveAspectRatio="xMidYMid meet" version="1.0"><defs><filter x="0%" y="0%" width="100%" height="100%" id="6ba79d1def"><feColorMatrix values="0 0 0 0 1 0 0 0 0 1 0 0 0 0 1 0 0 0 1 0" color-interpolation-filters="sRGB"/></filter><clipPath id="6664ba56ad"><path d="M 0.664062 0 L 1133.335938 0 L 1133.335938 640.5 L 0.664062 640.5 Z M 0.664062 0 " clip-rule="nonzero"/></clipPath><mask id="8d5c253481"><g filter="url(#6ba79d1def)"><rect x="-113.4" width="1360.8" fill="#000000" y="-64.124998" height="769.499976" fill-opacity="0.42"/></g></mask><clipPath id="845b9a05c4"><path d="M 0.664062 105 L 1133.335938 105 L 1133.335938 438 L 0.664062 438 Z M 0.664062 105 " clip-rule="nonzero"/></clipPath><clipPath id="bc13d5bc1e"><path d="M 245.835938 -81.570312 L 1145.726562 416.53125 L 887.789062 882.535156 L -12.101562 384.433594 Z M 245.835938 -81.570312 " clip-rule="nonzero"/></clipPath><clipPath id="fd31c9f15b"><path d="M 245.835938 -81.570312 L 1145.726562 416.53125 L 887.789062 882.535156 L -12.101562 384.433594 Z M 245.835938 -81.570312 " clip-rule="nonzero"/></clipPath><clipPath id="cb8b8818da"><rect x="0" width="1134" y="0" height="641"/></clipPath></defs><g clip-path="url(#6664ba56ad)"><g mask="url(#8d5c253481)"><g transform="matrix(1, 0, 0, 1, -0.000000000000000111, 0)"><g clip-path="url(#cb8b8818da)"><g clip-path="url(#845b9a05c4)"><g clip-path="url(#bc13d5bc1e)"><g clip-path="url(#fd31c9f15b)"><path fill="#ef87b3" d="M 266.515625 341.175781 C 299.507812 318.203125 328.34375 289.085938 349.914062 255.128906 C 367.390625 260.84375 385.660156 264.0625 402.757812 265.296875 C 461.367188 269.570312 518.433594 252.796875 575.121094 240.609375 C 628.457031 229.140625 686.78125 221.265625 739.035156 241.769531 C 779.195312 257.523438 815.195312 294.609375 818.226562 339.285156 C 787.738281 341.308594 754.632812 346.007812 732.046875 367.910156 C 721.269531 378.363281 713.429688 392.472656 711.777344 407.496094 C 711.074219 413.886719 710.355469 425.691406 715.386719 430.605469 C 719.519531 434.640625 728.621094 436.023438 734.160156 436.792969 C 760.289062 440.460938 786.074219 429.675781 804.890625 411.785156 C 821.09375 396.375 831.332031 375.96875 833.597656 354.074219 C 839.84375 353.808594 846.089844 353.648438 852.335938 353.601562 C 913.96875 353.117188 975.519531 363.664062 1033.621094 384.195312 C 1066.523438 395.875 1097.9375 410.703125 1127.871094 428.675781 C 1136.523438 433.855469 1144.09375 420.152344 1135.449219 414.980469 C 1124.152344 408.242188 1112.625 401.925781 1100.871094 396.023438 C 1089.113281 390.121094 1077.160156 384.648438 1065.011719 379.609375 C 1052.859375 374.570312 1040.542969 369.976562 1028.0625 365.828125 C 1015.578125 361.679688 1002.960938 357.988281 990.214844 354.75 C 977.464844 351.515625 964.613281 348.742188 951.664062 346.433594 C 938.714844 344.125 925.699219 342.289062 912.613281 340.921875 C 899.53125 339.550781 886.417969 338.660156 873.269531 338.238281 C 860.121094 337.820312 846.976562 337.875 833.832031 338.40625 C 831.789062 309.625 817.675781 282.835938 797.800781 262.285156 C 749.261719 212.082031 674.695312 208.109375 609.667969 218.210938 C 537.160156 229.480469 465.078125 258.273438 390.660156 248.433594 C 379.597656 247.011719 368.734375 244.675781 358.0625 241.421875 C 358.414062 240.789062 358.765625 240.15625 359.117188 239.523438 C 371.53125 216.777344 381.546875 190.359375 378.089844 164.011719 C 375.089844 141.164062 360.902344 119.085938 339.15625 109.933594 C 317.769531 100.9375 294.25 107.710938 280.304688 126.113281 C 266.226562 144.683594 263.363281 169.210938 272.121094 190.714844 C 283.589844 218.871094 307.414062 237.707031 334.921875 249.480469 C 305.972656 293.886719 264.074219 329.070312 216.550781 352.394531 C 164.636719 377.871094 104.734375 389.347656 47.171875 382.171875 C 32.9375 380.386719 18.917969 377.523438 5.125 373.589844 C -4.5625 370.832031 -8.242188 386.050781 1.453125 388.8125 C 91.039062 414.320312 190.601562 394.035156 266.515625 341.175781 Z M 799.320312 395.035156 C 787.089844 408.878906 769.878906 419.746094 751.199219 421.640625 C 743.257812 422.449219 735.140625 421.804688 727.589844 419.269531 C 723.417969 395.214844 743.59375 374 764.554688 365.351562 C 777.863281 359.863281 792.269531 357.453125 806.519531 356.027344 C 810.257812 355.652344 813.996094 355.328125 817.742188 355.046875 C 815.746094 369.804688 809.441406 383.578125 799.316406 395.039062 Z M 301.640625 208 C 291.703125 197.398438 283.644531 183.527344 282.710938 168.746094 C 281.914062 156.230469 285.964844 143.003906 294.351562 133.554688 C 302.929688 123.894531 315.179688 119.210938 327.910156 122.535156 C 340.644531 125.859375 350.851562 136.011719 356.910156 147.40625 C 372.042969 175.8125 357.691406 210.480469 343.140625 236.023438 C 327.589844 229.476562 313.238281 220.363281 301.640625 208 Z M 301.640625 208 " fill-opacity="1" fill-rule="nonzero"/></g></g></g></g></g></g></g></svg>