<svg width="80" height="80" viewBox="0 0 80 80" fill="none" xmlns="http://www.w3.org/2000/svg">
<path opacity="0.65" d="M73.3333 46.6667H70V43.3333C70 37.82 65.5133 33.3333 60 33.3333C54.4867 33.3333 50 37.82 50 43.3333V46.6667H46.6667C42.99 46.6667 40 49.6567 40 53.3333V68.3333C40 74.7667 45.2333 80 51.6667 80H68.3333C74.7667 80 80 74.7667 80 68.3333V53.3333C80 49.6567 77.01 46.6667 73.3333 46.6667ZM53.3333 43.3333C53.3333 39.6567 56.3233 36.6667 60 36.6667C63.6767 36.6667 66.6667 39.6567 66.6667 43.3333V46.6667H53.3333V43.3333ZM76.6667 68.3333C76.6667 72.9267 72.9267 76.6667 68.3333 76.6667H51.6667C47.0733 76.6667 43.3333 72.9267 43.3333 68.3333V53.3333C43.3333 51.4967 44.83 50 46.6667 50H50V55C50 55.92 50.7467 56.6667 51.6667 56.6667C52.5867 56.6667 53.3333 55.92 53.3333 55V50H66.6667V55C66.6667 55.92 67.4133 56.6667 68.3333 56.6667C69.2533 56.6667 70 55.92 70 55V50H73.3333C75.17 50 76.6667 51.4967 76.6667 53.3333V68.3333ZM30 40C41.03 40 50 31.03 50 20C50 8.97 41.03 0 30 0C18.97 0 10 8.97 10 20C10 31.03 18.97 40 30 40ZM30 3.33333C39.19 3.33333 46.6667 10.81 46.6667 20C46.6667 29.19 39.19 36.6667 30 36.6667C20.81 36.6667 13.3333 29.19 13.3333 20C13.3333 10.81 20.81 3.33333 30 3.33333ZM33.33 48.48C33.2767 49.3967 32.4633 50.0867 31.57 50.0467C31.05 50.0167 30.53 50 30 50C15.2967 50 3.33333 61.9633 3.33333 76.6667V78.3333C3.33333 79.2533 2.58667 80 1.66667 80C0.746667 80 0 79.2533 0 78.3333V76.6667C0 60.1267 13.46 46.6667 30 46.6667C30.5933 46.6667 31.18 46.6833 31.7633 46.72C32.6833 46.7733 33.3833 47.5633 33.33 48.48Z" fill="#FF80B4"/>
</svg>
