<svg xmlns="http://www.w3.org/2000/svg" xmlns:xlink="http://www.w3.org/1999/xlink" width="1512" zoomAndPan="magnify" viewBox="0 0 1134 641.24998" height="855" preserveAspectRatio="xMidYMid meet" version="1.0"><defs><clipPath id="ad6f2b77cb"><path d="M 208 197 L 487 197 L 487 457 L 208 457 Z M 208 197 " clip-rule="nonzero"/></clipPath><clipPath id="9917673e6a"><path d="M 191.621094 313.835938 L 294.453125 197.769531 L 486.214844 367.671875 L 383.378906 483.738281 Z M 191.621094 313.835938 " clip-rule="nonzero"/></clipPath><clipPath id="b3849248c4"><path d="M 191.621094 313.835938 L 446.96875 25.632812 L 638.730469 195.535156 L 383.378906 483.738281 Z M 191.621094 313.835938 " clip-rule="nonzero"/></clipPath><clipPath id="90ad96320b"><path d="M 643 197 L 920 197 L 920 456 L 643 456 Z M 643 197 " clip-rule="nonzero"/></clipPath><clipPath id="f4d45a6419"><path d="M 832.726562 197.28125 L 942.179688 317.46875 L 752.757812 489.972656 L 643.304688 369.785156 Z M 832.726562 197.28125 " clip-rule="nonzero"/></clipPath><clipPath id="28dc0e84d9"><path d="M 683.152344 33.035156 L 942.414062 317.722656 L 752.988281 490.226562 L 493.730469 205.539062 Z M 683.152344 33.035156 " clip-rule="nonzero"/></clipPath></defs><g clip-path="url(#ad6f2b77cb)"><g clip-path="url(#9917673e6a)"><g clip-path="url(#b3849248c4)"><path fill="#ee6fa5" d="M 489.277344 82.996094 L 461.773438 51.070312 C 460.511719 49.730469 459.039062 48.761719 457.535156 48.203125 C 455.605469 47.496094 454.195312 47.582031 453.25 48.519531 C 451.800781 49.90625 451.863281 52.847656 453.265625 57.535156 C 456.050781 66.558594 466.285156 82.851562 473.550781 93.847656 C 462.433594 83.441406 437.589844 60.429688 429.492188 55.144531 C 426.242188 53.042969 424.203125 52.457031 422.898438 53.300781 C 421.878906 53.953125 421.617188 55.5 422.042969 57.65625 C 422.460938 59.691406 423.347656 61.703125 424.636719 63.507812 C 429.414062 70.410156 434.042969 76.847656 438.359375 82.890625 C 432.097656 77.789062 427.625 74.9375 424.761719 73.402344 C 423.660156 72.761719 422.378906 72.957031 421.417969 73.660156 C 420.402344 74.429688 420.003906 75.632812 420.320312 76.910156 C 421.945312 83.351562 428.9375 93.773438 434.84375 101.78125 C 435.753906 108.035156 437.792969 114.507812 440.433594 119.183594 L 475.496094 181.585938 C 474.8125 186.871094 473.953125 193.113281 472.929688 200.539062 C 470.46875 217.363281 473.640625 235.734375 482.230469 255.015625 C 488.164062 268.382812 496.667969 280.363281 507.425781 290.671875 L 532.699219 314.957031 L 533.863281 313.765625 L 508.589844 289.484375 C 498.019531 279.339844 489.640625 267.46875 483.722656 254.335938 C 475.207031 235.34375 472.117188 217.382812 474.476562 200.800781 C 480.371094 159.902344 479.644531 153.699219 479.566406 153.410156 L 479.558594 153.292969 C 479.550781 153.175781 477.328125 144.648438 476.59375 134.4375 C 475.96875 125.105469 476.386719 112.472656 482.417969 105.035156 C 483.195312 104.28125 485.335938 102.621094 486.84375 103.179688 C 487.988281 103.640625 488.753906 105.539062 489.007812 108.761719 C 489.695312 120.152344 501.179688 168.78125 506.101562 181.03125 L 507.65625 180.410156 C 502.878906 168.617188 491.316406 119.699219 490.652344 108.664062 C 490.410156 104.671875 489.328125 102.378906 487.453125 101.609375 C 485.402344 100.789062 483.074219 102.285156 481.953125 103.179688 C 478.46875 98.203125 458.714844 69.699219 454.824219 57.03125 C 453.136719 51.535156 453.992188 50.066406 454.324219 49.695312 C 454.9375 49.125 456.015625 49.414062 456.921875 49.773438 C 458.25 50.28125 459.417969 51.09375 460.542969 52.207031 L 488.046875 84.128906 C 493.203125 89.476562 497.570312 95.457031 501.027344 101.964844 L 521.316406 140.28125 C 524.449219 146.277344 526.492188 152.753906 527.371094 159.535156 L 533.804688 211.355469 C 534.910156 219.890625 538.394531 227.871094 543.976562 234.371094 L 573.566406 268.703125 L 574.859375 267.625 L 545.265625 233.289062 C 539.816406 227.019531 536.46875 219.386719 535.441406 211.140625 L 529.007812 159.320312 C 528.175781 152.359375 526.066406 145.707031 522.746094 139.546875 L 502.457031 101.230469 C 498.925781 94.433594 494.429688 88.339844 489.277344 82.996094 Z M 425.9375 62.664062 C 424.777344 60.96875 424.019531 59.1875 423.617188 57.382812 C 423.28125 55.753906 423.46875 54.917969 423.75 54.722656 C 423.921875 54.65625 424.894531 54.183594 428.457031 56.5625 C 438.402344 63.148438 475.707031 98.3125 477.644531 100.140625 C 479.0625 102.175781 480.15625 103.699219 480.675781 104.492188 C 476.25 110.242188 474.75 118.582031 474.597656 126.78125 C 469.136719 120.277344 449.246094 96.316406 425.9375 62.664062 Z M 441.800781 118.390625 C 439.75 114.6875 437.980469 109.785156 436.96875 104.777344 C 440.429688 109.402344 443.164062 112.710938 443.476562 112.988281 L 477.882812 153.804688 C 477.945312 154.863281 478.023438 160.042969 475.675781 178.746094 Z M 477.082031 150.320312 L 444.710938 111.96875 C 444.515625 111.6875 424.554688 87.554688 421.832031 76.582031 C 421.679688 76.003906 421.878906 75.402344 422.386719 75.078125 C 422.835938 74.695312 423.421875 74.660156 423.96875 74.921875 C 427.503906 76.828125 433.636719 80.820312 442.664062 88.816406 C 459.921875 112.113281 472.796875 127.183594 474.636719 129.371094 C 474.742188 137.910156 476.167969 145.953125 477.082031 150.320312 Z M 417.847656 327.554688 C 397.613281 321.292969 379.054688 320.410156 362.648438 324.878906 C 355.460938 326.847656 349.308594 328.394531 344.144531 329.710938 L 277.972656 302.421875 C 273.015625 300.363281 266.339844 299.117188 260.027344 298.96875 C 251.480469 294.0625 240.230469 288.320312 233.648438 287.597656 C 232.402344 287.496094 231.257812 288.039062 230.554688 289.082031 C 229.914062 290.179688 229.992188 291.472656 230.699219 292.429688 C 232.566406 295.089844 235.9375 299.1875 241.757812 304.785156 C 235.292969 301.167969 228.226562 297.355469 220.863281 293.496094 C 218.914062 292.4375 216.8125 291.796875 214.738281 291.628906 C 212.488281 291.410156 211.042969 291.910156 210.523438 293.003906 C 209.839844 294.398438 210.609375 296.414062 213.144531 299.324219 C 219.421875 306.667969 245.203125 328.621094 256.871094 338.402344 C 245.136719 332.453125 227.675781 324.316406 218.382812 322.640625 C 213.496094 321.753906 210.574219 322.167969 209.429688 323.710938 C 208.609375 324.761719 208.757812 326.226562 209.632812 328 C 210.429688 329.484375 211.507812 330.773438 213.050781 331.917969 L 247.9375 355.382812 C 253.929688 359.910156 260.574219 363.574219 267.628906 366.273438 L 308.046875 381.742188 C 314.617188 384.234375 321.472656 385.527344 328.429688 385.578125 L 380.648438 385.722656 C 388.957031 385.75 396.9375 388.15625 403.820312 392.808594 L 441.46875 418.050781 L 442.382812 416.640625 L 404.738281 391.398438 C 397.613281 386.640625 389.265625 384.023438 380.664062 384.070312 L 328.449219 383.929688 C 321.671875 383.925781 314.996094 382.679688 308.601562 380.238281 L 268.125 364.710938 C 261.246094 362.0625 254.726562 358.507812 248.855469 353.972656 L 213.910156 330.570312 C 212.671875 329.582031 211.664062 328.464844 211.058594 327.265625 C 210.660156 326.464844 210.234375 325.3125 210.667969 324.695312 C 210.992188 324.203125 212.40625 323.234375 218.011719 324.3125 C 231.167969 326.519531 261.84375 342.699219 267.203125 345.554688 C 266.453125 346.78125 265.246094 349.269531 266.308594 351.207031 C 267.242188 353.039062 269.703125 353.773438 273.695312 353.53125 C 284.734375 352.863281 334.6875 358.449219 346.964844 361.773438 L 347.398438 360.15625 C 334.640625 356.742188 285.039062 351.136719 273.597656 351.886719 C 270.425781 352.078125 268.394531 351.613281 267.789062 350.410156 C 267.054688 348.984375 268.449219 346.660156 269.101562 345.796875 C 275.640625 338.917969 288.132812 336.984375 297.472656 336.480469 C 307.695312 335.980469 316.492188 337.214844 316.546875 337.152344 L 316.664062 337.144531 C 316.898438 337.132812 323.207031 337.164062 363.09375 326.382812 C 379.210938 321.992188 397.476562 322.953125 417.355469 329.117188 C 431.105469 333.410156 443.898438 340.296875 455.242188 349.570312 L 482.390625 371.734375 L 483.433594 370.4375 L 456.28125 348.269531 C 444.753906 338.832031 431.835938 331.835938 417.847656 327.554688 Z M 277.359375 303.988281 L 341.417969 330.40625 C 323.132812 334.988281 317.917969 335.480469 316.921875 335.597656 L 272.195312 306.304688 C 271.765625 306.035156 268.214844 303.777344 263.261719 300.835938 C 268.355469 301.234375 273.425781 302.28125 277.359375 303.988281 Z M 214.371094 298.191406 C 211.582031 294.941406 211.933594 293.917969 211.980469 293.738281 C 212.140625 293.433594 212.945312 293.152344 214.605469 293.285156 C 216.441406 293.46875 218.300781 294.003906 220.125 294.957031 C 256.339844 314.039062 282.519531 330.902344 289.636719 335.539062 C 281.515625 336.675781 273.417969 339.171875 268.242188 344.257812 C 267.394531 343.835938 265.746094 342.933594 263.554688 341.769531 C 261.570312 340.121094 222.171875 307.324219 214.371094 298.191406 Z M 292.152344 335.210938 C 289.757812 333.644531 273.246094 322.679688 248.042969 308.355469 C 239.015625 300.355469 234.316406 294.746094 231.996094 291.46875 C 231.671875 290.957031 231.636719 290.371094 231.957031 289.878906 C 232.28125 289.390625 232.792969 289.0625 233.386719 289.144531 C 244.609375 290.53125 271.085938 307.433594 271.273438 307.597656 L 313.242188 335.113281 C 308.859375 334.789062 300.703125 334.339844 292.152344 335.210938 Z M 410.429688 426.113281 C 403.535156 431.007812 401.539062 431.128906 394.109375 427.101562 C 393.742188 426.886719 393.332031 426.96875 393.058594 427.28125 C 392.78125 427.59375 392.75 428.007812 393.003906 428.34375 C 397.898438 435.238281 398.019531 437.234375 393.992188 444.667969 C 393.777344 445.035156 393.859375 445.441406 394.171875 445.714844 C 394.484375 445.992188 394.898438 446.027344 395.234375 445.769531 C 402.128906 440.875 404.125 440.753906 411.558594 444.785156 C 411.925781 444.996094 412.332031 444.914062 412.609375 444.601562 C 412.882812 444.292969 412.917969 443.875 412.660156 443.539062 C 407.765625 436.644531 407.644531 434.648438 411.675781 427.214844 C 411.886719 426.851562 411.804688 426.441406 411.492188 426.167969 C 411.183594 425.890625 410.710938 425.917969 410.429688 426.113281 Z M 409.496094 441.84375 C 404.460938 439.496094 401.644531 439.667969 396.929688 442.605469 C 399.277344 437.570312 399.109375 434.753906 396.171875 430.039062 C 401.203125 432.386719 404.023438 432.214844 408.734375 429.28125 C 406.386719 434.3125 406.558594 437.132812 409.496094 441.84375 Z M 553.617188 125.777344 C 553.304688 125.5 552.890625 125.464844 552.550781 125.722656 C 547.75 129.136719 546.457031 129.214844 541.28125 126.402344 C 540.914062 126.191406 540.503906 126.273438 540.230469 126.585938 C 539.953125 126.898438 539.921875 127.3125 540.175781 127.648438 C 543.589844 132.453125 543.667969 133.742188 540.855469 138.921875 C 540.644531 139.289062 540.726562 139.695312 541.039062 139.972656 C 541.351562 140.246094 541.765625 140.28125 542.101562 140.023438 C 546.90625 136.613281 548.195312 136.535156 553.375 139.34375 C 553.742188 139.558594 554.148438 139.472656 554.425781 139.164062 C 554.699219 138.851562 554.734375 138.4375 554.476562 138.097656 C 551.066406 133.296875 550.988281 132.003906 553.796875 126.824219 C 553.949219 126.40625 553.863281 125.996094 553.617188 125.777344 Z M 551.492188 136.453125 C 548.472656 135.222656 546.53125 135.277344 543.742188 136.921875 C 544.972656 133.898438 544.914062 131.960938 543.273438 129.171875 C 546.292969 130.402344 548.234375 130.34375 551.023438 128.703125 C 549.730469 131.667969 549.851562 133.664062 551.492188 136.453125 Z M 349.351562 406.117188 C 348.347656 408.003906 347.664062 409.402344 347.445312 410.652344 C 348.164062 410.84375 349 411.027344 350.132812 411.253906 C 350.3125 411.304688 350.5625 411.523438 350.578125 411.757812 C 350.589844 411.992188 350.425781 412.179688 350.199219 412.3125 C 349.15625 412.609375 348.347656 412.894531 347.601562 413.234375 C 347.96875 414.449219 348.816406 415.753906 350.039062 417.507812 C 350.171875 417.734375 350.1875 417.96875 350.019531 418.15625 C 349.855469 418.34375 349.621094 418.355469 349.378906 418.253906 C 347.492188 417.25 346.09375 416.566406 344.84375 416.347656 C 344.652344 417.066406 344.464844 417.902344 344.242188 419.035156 C 344.246094 419.152344 344.191406 419.214844 344.136719 419.277344 C 344.027344 419.402344 343.910156 419.410156 343.792969 419.417969 C 343.558594 419.429688 343.371094 419.265625 343.238281 419.039062 C 342.941406 417.996094 342.65625 417.1875 342.316406 416.441406 C 341.101562 416.808594 339.796875 417.65625 338.042969 418.878906 C 337.816406 419.011719 337.582031 419.027344 337.394531 418.859375 C 337.207031 418.695312 337.195312 418.460938 337.296875 418.21875 C 338.300781 416.332031 338.984375 414.933594 339.203125 413.683594 C 338.484375 413.492188 337.648438 413.304688 336.515625 413.078125 C 336.335938 413.03125 336.085938 412.8125 336.070312 412.578125 C 336.058594 412.339844 336.222656 412.15625 336.449219 412.023438 C 337.492188 411.722656 338.300781 411.441406 339.046875 411.101562 C 338.679688 409.886719 337.832031 408.582031 336.609375 406.828125 C 336.476562 406.601562 336.460938 406.367188 336.628906 406.179688 C 336.792969 405.992188 337.027344 405.976562 337.269531 406.082031 C 339.15625 407.085938 340.554688 407.769531 341.804688 407.988281 C 341.996094 407.269531 342.183594 406.433594 342.410156 405.300781 C 342.457031 405.121094 342.621094 404.933594 342.910156 404.855469 C 343.148438 404.84375 343.332031 405.007812 343.464844 405.234375 C 343.765625 406.277344 344.046875 407.085938 344.386719 407.832031 C 345.601562 407.464844 346.90625 406.617188 348.660156 405.394531 C 348.886719 405.261719 349.121094 405.246094 349.308594 405.414062 C 349.496094 405.578125 349.457031 405.875 349.351562 406.117188 Z M 580.53125 208.414062 C 580.828125 208.453125 581.023438 208.738281 581.097656 209.027344 C 581.113281 209.261719 581.003906 209.386719 580.890625 209.511719 C 580.835938 209.574219 580.726562 209.699219 580.609375 209.707031 C 579.277344 210.082031 578.179688 210.441406 577.324219 210.90625 C 577.828125 212.464844 578.875 214.171875 580.488281 216.488281 C 580.683594 216.773438 580.640625 217.070312 580.421875 217.316406 C 580.199219 217.566406 579.847656 217.589844 579.605469 217.484375 C 577.109375 216.164062 575.292969 215.328125 573.683594 215.015625 C 573.386719 215.976562 573.097656 217.054688 572.886719 218.421875 C 572.84375 218.71875 572.5625 218.914062 572.273438 218.988281 C 571.921875 219.011719 571.671875 218.789062 571.59375 218.5 C 571.21875 217.167969 570.859375 216.070312 570.394531 215.214844 C 568.832031 215.71875 567.128906 216.765625 564.8125 218.378906 C 564.527344 218.574219 564.230469 218.53125 563.980469 218.3125 C 563.734375 218.089844 563.710938 217.738281 563.816406 217.496094 C 565.136719 215 565.96875 213.183594 566.285156 211.574219 C 565.324219 211.277344 564.246094 210.988281 562.878906 210.777344 C 562.582031 210.734375 562.386719 210.453125 562.3125 210.164062 C 562.289062 209.8125 562.511719 209.5625 562.800781 209.484375 C 564.132812 209.109375 565.230469 208.75 566.085938 208.285156 C 565.578125 206.722656 564.535156 205.019531 562.921875 202.703125 C 562.726562 202.417969 562.765625 202.121094 562.988281 201.871094 C 563.207031 201.625 563.5625 201.601562 563.804688 201.707031 C 566.300781 203.027344 568.117188 203.859375 569.726562 204.175781 C 570.023438 203.214844 570.3125 202.136719 570.523438 200.769531 C 570.5625 200.472656 570.847656 200.277344 571.136719 200.203125 C 571.488281 200.179688 571.738281 200.402344 571.816406 200.691406 C 572.191406 202.023438 572.550781 203.121094 573.015625 203.976562 C 574.574219 203.46875 576.28125 202.425781 578.597656 200.8125 C 578.882812 200.617188 579.179688 200.65625 579.425781 200.878906 C 579.675781 201.097656 579.699219 201.453125 579.59375 201.695312 C 578.273438 204.191406 577.4375 206.007812 577.125 207.617188 C 578.03125 207.976562 579.164062 208.203125 580.53125 208.414062 Z M 579 148.933594 C 577.507812 150.613281 577.609375 153.257812 579.351562 154.804688 C 581.097656 156.347656 583.679688 156.191406 585.222656 154.449219 C 586.769531 152.707031 586.613281 150.121094 584.871094 148.578125 C 583.125 147.03125 580.488281 147.25 579 148.933594 Z M 583.917969 153.289062 C 583.035156 154.285156 581.453125 154.441406 580.394531 153.503906 C 579.335938 152.566406 579.242188 151.039062 580.179688 149.980469 C 581.117188 148.921875 582.644531 148.828125 583.703125 149.765625 C 584.761719 150.707031 584.800781 152.292969 583.917969 153.289062 Z M 599.804688 218.269531 C 598.425781 219.824219 598.574219 222.289062 600.132812 223.667969 C 601.6875 225.046875 604.15625 224.898438 605.535156 223.34375 C 606.914062 221.785156 606.765625 219.320312 605.207031 217.941406 C 603.652344 216.5625 601.183594 216.710938 599.804688 218.269531 Z M 604.289062 222.238281 C 603.515625 223.109375 602.105469 223.195312 601.234375 222.425781 C 600.363281 221.652344 600.277344 220.242188 601.050781 219.371094 C 601.824219 218.5 603.234375 218.414062 604.105469 219.1875 C 604.976562 219.957031 605.0625 221.367188 604.289062 222.238281 Z M 555.734375 170.550781 C 556.480469 171.210938 556.542969 172.269531 555.882812 173.015625 C 555.21875 173.761719 554.164062 173.828125 553.414062 173.164062 C 552.667969 172.503906 552.605469 171.445312 553.265625 170.699219 C 553.929688 169.953125 554.984375 169.886719 555.734375 170.550781 Z M 392.027344 404.363281 C 392.835938 405.078125 392.90625 406.253906 392.191406 407.0625 C 391.472656 407.871094 390.296875 407.945312 389.488281 407.226562 C 388.679688 406.507812 388.609375 405.335938 389.324219 404.527344 C 390.042969 403.714844 391.21875 403.644531 392.027344 404.363281 Z M 351.632812 448.699219 C 349.976562 450.566406 350.152344 453.503906 352.023438 455.160156 C 353.890625 456.8125 356.824219 456.636719 358.480469 454.769531 C 360.132812 452.902344 359.957031 449.964844 358.089844 448.308594 C 356.222656 446.65625 353.285156 446.832031 351.632812 448.699219 Z M 357.234375 453.664062 C 356.1875 454.847656 354.308594 454.960938 353.125 453.914062 C 351.941406 452.867188 351.828125 450.988281 352.875 449.804688 C 353.925781 448.621094 355.804688 448.507812 356.984375 449.554688 C 358.167969 450.601562 358.28125 452.480469 357.234375 453.664062 Z M 302.375 396.167969 C 300.996094 397.726562 301.140625 400.074219 302.695312 401.453125 C 304.253906 402.832031 306.601562 402.691406 307.980469 401.132812 C 309.359375 399.578125 309.214844 397.230469 307.660156 395.851562 C 306.160156 394.410156 303.753906 394.613281 302.375 396.167969 Z M 306.734375 400.03125 C 305.960938 400.902344 304.671875 400.980469 303.800781 400.207031 C 302.925781 399.4375 302.847656 398.144531 303.621094 397.273438 C 304.394531 396.402344 305.683594 396.324219 306.558594 397.09375 C 307.429688 397.867188 307.507812 399.160156 306.734375 400.03125 Z M 306.734375 400.03125 " fill-opacity="1" fill-rule="nonzero"/></g></g></g><g clip-path="url(#90ad96320b)"><g clip-path="url(#f4d45a6419)"><g clip-path="url(#28dc0e84d9)"><path fill="#ee6fa5" d="M 880.855469 353.660156 L 915.539062 329.722656 C 917.003906 328.613281 918.128906 327.253906 918.84375 325.816406 C 919.753906 323.972656 919.820312 322.5625 918.984375 321.523438 C 917.761719 319.9375 914.832031 319.679688 910.019531 320.574219 C 900.75 322.378906 883.457031 330.816406 871.75 336.863281 C 883.285156 326.921875 908.820312 304.679688 914.941406 297.191406 C 917.378906 294.1875 918.175781 292.222656 917.476562 290.835938 C 916.9375 289.75 915.425781 289.324219 913.238281 289.519531 C 911.167969 289.714844 909.074219 290.382812 907.140625 291.46875 C 899.769531 295.484375 892.875 299.398438 886.402344 303.042969 C 892.144531 297.363281 895.457031 293.21875 897.292969 290.539062 C 898.046875 289.515625 897.988281 288.214844 897.390625 287.1875 C 896.734375 286.097656 895.582031 285.570312 894.277344 285.746094 C 887.699219 286.675781 876.589844 292.515625 867.996094 297.53125 C 861.683594 297.765625 855.027344 299.101562 850.097656 301.226562 L 784.304688 329.417969 C 779.121094 328.175781 773.011719 326.652344 765.734375 324.839844 C 749.269531 320.597656 730.664062 321.789062 710.578125 328.269531 C 696.648438 332.742188 683.832031 339.914062 672.429688 349.507812 L 645.585938 372.042969 L 646.644531 373.328125 L 673.488281 350.796875 C 684.703125 341.367188 697.398438 334.308594 711.09375 329.824219 C 730.882812 323.390625 749.074219 322.238281 765.308594 326.351562 C 805.34375 336.585938 811.585938 336.523438 811.882812 336.480469 L 812 336.484375 C 812.121094 336.488281 820.835938 335.191406 831.066406 335.550781 C 840.410156 335.929688 852.929688 337.691406 859.675781 344.484375 C 860.34375 345.339844 861.765625 347.644531 861.050781 349.082031 C 860.46875 350.171875 858.5 350.730469 855.265625 350.636719 C 843.867188 350.105469 794.292969 356.324219 781.582031 359.910156 L 782.039062 361.523438 C 794.273438 358.03125 844.144531 351.765625 855.191406 352.28125 C 859.183594 352.46875 861.578125 351.636719 862.546875 349.859375 C 863.578125 347.90625 862.339844 345.433594 861.574219 344.21875 C 866.890625 341.289062 897.34375 324.691406 910.355469 322.179688 C 916 321.089844 917.367188 322.097656 917.703125 322.464844 C 918.203125 323.136719 917.800781 324.175781 917.347656 325.039062 C 916.699219 326.304688 915.765625 327.378906 914.542969 328.382812 L 879.859375 352.316406 C 873.996094 356.871094 867.578125 360.574219 860.738281 363.316406 L 820.476562 379.394531 C 814.179688 381.867188 807.523438 383.203125 800.683594 383.355469 L 748.472656 384.214844 C 739.867188 384.398438 731.5625 387.015625 724.503906 391.867188 L 687.207031 417.621094 L 688.140625 419.019531 L 725.441406 393.265625 C 732.257812 388.519531 740.207031 386.003906 748.515625 385.863281 L 800.726562 385.007812 C 807.734375 384.921875 814.570312 383.535156 821.054688 380.894531 L 861.316406 364.816406 C 868.453125 362.027344 874.992188 358.210938 880.855469 353.660156 Z M 907.839844 292.855469 C 909.652344 291.882812 911.503906 291.320312 913.339844 291.113281 C 914.996094 290.953125 915.808594 291.226562 915.96875 291.53125 C 916.019531 291.707031 916.386719 292.726562 913.640625 296.011719 C 906.027344 305.195312 867.078125 338.527344 865.054688 340.261719 C 862.878906 341.453125 861.246094 342.378906 860.402344 342.808594 C 855.160156 337.796875 847.027344 335.414062 838.890625 334.386719 C 845.941406 329.652344 871.890625 312.433594 907.839844 292.855469 Z M 850.738281 302.671875 C 854.640625 301.027344 859.703125 299.792969 864.789062 299.324219 C 859.824219 302.273438 856.238281 304.636719 855.933594 304.914062 L 811.671875 334.761719 C 810.613281 334.710938 805.453125 334.234375 787.109375 329.902344 Z M 815.222656 334.339844 L 856.8125 306.253906 C 857.113281 306.089844 883.242188 288.820312 894.441406 287.285156 C 895.035156 287.195312 895.609375 287.457031 895.878906 288 C 896.210938 288.484375 896.183594 289.074219 895.863281 289.589844 C 893.589844 292.898438 888.96875 298.570312 880.050781 306.691406 C 855.046875 321.363281 838.683594 332.550781 836.3125 334.148438 C 827.8125 333.335938 819.660156 333.898438 815.222656 334.339844 Z M 645.332031 256.503906 C 653.722656 237.050781 656.582031 218.695312 653.890625 201.90625 C 652.703125 194.550781 651.820312 188.265625 651.066406 182.992188 L 685.273438 120.113281 C 687.847656 115.40625 689.800781 108.902344 690.621094 102.640625 C 696.414062 94.667969 703.324219 84.097656 704.746094 77.628906 C 704.980469 76.402344 704.566406 75.203125 703.601562 74.394531 C 702.578125 73.640625 701.285156 73.578125 700.257812 74.179688 C 697.414062 75.753906 692.980469 78.667969 686.789062 83.855469 C 691.078125 77.8125 695.625 71.195312 700.246094 64.285156 C 701.511719 62.460938 702.371094 60.441406 702.761719 58.398438 C 703.21875 56.183594 702.875 54.695312 701.84375 54.058594 C 700.527344 53.230469 698.441406 53.78125 695.277344 55.988281 C 687.308594 61.445312 662.726562 84.730469 651.75 95.289062 C 658.921875 84.257812 668.875 67.765625 671.539062 58.703125 C 672.9375 53.941406 672.839844 50.992188 671.429688 49.691406 C 670.472656 48.761719 669 48.753906 667.144531 49.429688 C 665.582031 50.066406 664.183594 51 662.882812 52.410156 L 635.824219 84.59375 C 630.679688 90.0625 626.324219 96.277344 622.890625 103.007812 L 603.1875 141.539062 C 600.011719 147.808594 597.992188 154.484375 597.195312 161.394531 L 591.472656 213.296875 C 590.558594 221.558594 587.3125 229.238281 581.953125 235.582031 L 552.832031 270.316406 L 554.136719 271.378906 L 583.257812 236.644531 C 588.746094 230.070312 592.242188 222.046875 593.113281 213.492188 L 598.835938 161.589844 C 599.5625 154.851562 601.515625 148.347656 604.628906 142.253906 L 624.390625 103.667969 C 627.757812 97.109375 631.988281 91.007812 637.128906 85.65625 L 664.128906 53.414062 C 665.242188 52.285156 666.460938 51.402344 667.71875 50.929688 C 668.558594 50.617188 669.75 50.320312 670.316406 50.816406 C 670.769531 51.191406 671.582031 52.699219 669.914062 58.15625 C 666.3125 71.003906 646.949219 99.773438 643.535156 104.796875 C 642.398438 103.917969 640.050781 102.457031 638.011719 103.300781 C 636.089844 104.035156 635.097656 106.402344 634.910156 110.398438 C 634.394531 121.445312 623.503906 170.515625 618.886719 182.371094 L 620.449219 182.972656 C 625.203125 170.652344 636.078125 121.9375 636.554688 110.476562 C 636.703125 107.304688 637.386719 105.332031 638.644531 104.863281 C 640.140625 104.285156 642.304688 105.917969 643.09375 106.660156 C 649.230469 113.894531 649.820312 126.523438 649.324219 135.863281 C 648.730469 146.082031 646.558594 154.695312 646.617188 154.753906 L 646.609375 154.871094 C 646.597656 155.109375 645.894531 161.375 652.347656 202.1875 C 654.992188 218.679688 652.085938 236.742188 643.832031 255.84375 C 638.09375 269.0625 629.878906 281.042969 619.445312 291.328125 L 594.507812 315.953125 L 595.6875 317.128906 L 620.628906 292.503906 C 631.246094 282.046875 639.582031 269.953125 645.332031 256.503906 Z M 683.777344 119.335938 L 650.667969 180.207031 C 648.066406 161.535156 648.132812 156.296875 648.121094 155.296875 L 682.027344 113.957031 C 682.339844 113.558594 684.96875 110.265625 688.421875 105.65625 C 687.480469 110.679688 685.894531 115.609375 683.777344 119.335938 Z M 696.273438 57.328125 C 699.800781 54.902344 700.78125 55.359375 700.957031 55.429688 C 701.242188 55.617188 701.4375 56.453125 701.125 58.085938 C 700.746094 59.894531 700.015625 61.683594 698.875 63.398438 C 676.03125 97.367188 656.46875 121.59375 651.097656 128.171875 C 650.832031 119.976562 649.21875 111.65625 644.714844 105.96875 C 645.222656 105.171875 646.296875 103.628906 647.6875 101.574219 C 649.539062 99.777344 686.359375 64.109375 696.273438 57.328125 Z M 651.15625 130.707031 C 652.964844 128.496094 665.632812 113.25 682.570312 89.722656 C 691.488281 81.601562 697.566406 77.527344 701.074219 75.570312 C 701.617188 75.300781 702.203125 75.332031 702.65625 75.703125 C 703.109375 76.078125 703.378906 76.621094 703.234375 77.203125 C 700.660156 88.210938 681.023438 112.730469 680.839844 112.898438 L 648.996094 151.6875 C 649.789062 147.367188 651.105469 139.300781 651.15625 130.707031 Z M 548.132812 238.59375 C 544 231.21875 544.09375 229.21875 548.894531 222.261719 C 549.144531 221.917969 549.105469 221.503906 548.828125 221.195312 C 548.546875 220.890625 548.136719 220.8125 547.773438 221.03125 C 540.398438 225.160156 538.398438 225.066406 531.441406 220.265625 C 531.097656 220.015625 530.683594 220.054688 530.378906 220.335938 C 530.070312 220.613281 529.992188 221.023438 530.210938 221.386719 C 534.339844 228.761719 534.246094 230.761719 529.449219 237.71875 C 529.195312 238.0625 529.234375 238.476562 529.515625 238.785156 C 529.796875 239.089844 530.203125 239.167969 530.566406 238.949219 C 537.945312 234.820312 539.941406 234.914062 546.902344 239.714844 C 547.242188 239.964844 547.65625 239.925781 547.964844 239.644531 C 548.273438 239.367188 548.292969 238.894531 548.132812 238.59375 Z M 532.589844 235.984375 C 535.460938 231.230469 535.59375 228.410156 533.179688 223.410156 C 537.929688 226.28125 540.75 226.414062 545.75 223.996094 C 542.878906 228.75 542.746094 231.570312 545.164062 236.570312 C 540.410156 233.699219 537.589844 233.566406 532.589844 235.984375 Z M 831.445312 413.058594 C 831.753906 412.777344 831.832031 412.371094 831.613281 412.003906 C 828.730469 406.867188 828.792969 405.574219 832.140625 400.726562 C 832.390625 400.382812 832.351562 399.96875 832.070312 399.660156 C 831.792969 399.355469 831.382812 399.277344 831.019531 399.496094 C 825.878906 402.375 824.585938 402.316406 819.738281 398.96875 C 819.398438 398.714844 818.984375 398.753906 818.675781 399.035156 C 818.367188 399.316406 818.289062 399.722656 818.507812 400.085938 C 821.390625 405.226562 821.328125 406.519531 817.980469 411.367188 C 817.730469 411.710938 817.769531 412.125 818.050781 412.429688 C 818.328125 412.738281 818.738281 412.816406 819.101562 412.597656 C 824.242188 409.71875 825.535156 409.777344 830.382812 413.125 C 830.785156 413.320312 831.199219 413.28125 831.445312 413.058594 Z M 821.058594 409.804688 C 822.605469 406.933594 822.753906 404.996094 821.421875 402.050781 C 824.292969 403.597656 826.226562 403.746094 829.175781 402.410156 C 827.628906 405.285156 827.480469 407.21875 828.8125 410.167969 C 826.003906 408.5625 824.003906 408.46875 821.058594 409.804688 Z M 574.539062 180.003906 C 572.773438 178.800781 571.457031 177.976562 570.234375 177.625 C 569.96875 178.316406 569.695312 179.128906 569.347656 180.230469 C 569.28125 180.40625 569.035156 180.628906 568.800781 180.617188 C 568.566406 180.605469 568.398438 180.421875 568.289062 180.183594 C 568.105469 179.113281 567.910156 178.28125 567.652344 177.503906 C 566.402344 177.738281 565.015625 178.4375 563.140625 179.46875 C 562.902344 179.578125 562.667969 179.566406 562.5 179.382812 C 562.332031 179.195312 562.34375 178.960938 562.46875 178.734375 C 563.671875 176.964844 564.5 175.648438 564.851562 174.425781 C 564.15625 174.160156 563.34375 173.886719 562.242188 173.539062 C 562.125 173.535156 562.070312 173.472656 562.011719 173.410156 C 561.902344 173.289062 561.90625 173.171875 561.910156 173.054688 C 561.921875 172.820312 562.105469 172.652344 562.347656 172.542969 C 563.417969 172.359375 564.25 172.160156 565.027344 171.902344 C 564.792969 170.65625 564.089844 169.269531 563.058594 167.394531 C 562.953125 167.15625 562.964844 166.921875 563.148438 166.753906 C 563.332031 166.585938 563.566406 166.59375 563.796875 166.722656 C 565.566406 167.925781 566.882812 168.753906 568.101562 169.105469 C 568.371094 168.410156 568.644531 167.597656 568.988281 166.496094 C 569.054688 166.320312 569.300781 166.097656 569.539062 166.109375 C 569.773438 166.121094 569.941406 166.304688 570.046875 166.542969 C 570.234375 167.613281 570.429688 168.445312 570.6875 169.222656 C 571.933594 168.988281 573.320312 168.289062 575.195312 167.257812 C 575.4375 167.148438 575.671875 167.160156 575.839844 167.34375 C 576.007812 167.53125 575.996094 167.765625 575.867188 167.996094 C 574.667969 169.761719 573.839844 171.078125 573.488281 172.300781 C 574.183594 172.566406 574.992188 172.839844 576.097656 173.1875 C 576.269531 173.253906 576.4375 173.4375 576.484375 173.734375 C 576.472656 173.96875 576.285156 174.136719 576.046875 174.246094 C 574.976562 174.429688 574.144531 174.625 573.367188 174.882812 C 573.601562 176.132812 574.304688 177.519531 575.335938 179.394531 C 575.441406 179.632812 575.429688 179.867188 575.246094 180.035156 C 575.0625 180.203125 574.769531 180.132812 574.539062 180.003906 Z M 746.40625 430.988281 C 746.332031 431.277344 746.03125 431.441406 745.734375 431.484375 C 745.5 431.472656 745.386719 431.351562 745.273438 431.230469 C 745.21875 431.167969 745.105469 431.042969 745.113281 430.925781 C 744.882812 429.5625 744.640625 428.429688 744.269531 427.53125 C 742.664062 427.867188 740.859375 428.726562 738.378906 430.082031 C 738.078125 430.246094 737.789062 430.171875 737.5625 429.925781 C 737.339844 429.679688 737.355469 429.328125 737.484375 429.097656 C 739.066406 426.757812 740.089844 425.039062 740.574219 423.472656 C 739.648438 423.074219 738.609375 422.671875 737.273438 422.316406 C 736.980469 422.242188 736.816406 421.941406 736.773438 421.644531 C 736.789062 421.292969 737.035156 421.070312 737.332031 421.023438 C 738.695312 420.792969 739.828125 420.550781 740.726562 420.179688 C 740.390625 418.574219 739.53125 416.769531 738.175781 414.292969 C 738.015625 413.988281 738.085938 413.699219 738.332031 413.476562 C 738.578125 413.25 738.929688 413.265625 739.160156 413.394531 C 741.5 414.976562 743.21875 416 744.785156 416.484375 C 745.183594 415.5625 745.585938 414.519531 745.941406 413.183594 C 746.015625 412.890625 746.316406 412.730469 746.613281 412.683594 C 746.964844 412.699219 747.191406 412.945312 747.234375 413.242188 C 747.464844 414.609375 747.707031 415.738281 748.078125 416.640625 C 749.683594 416.300781 751.488281 415.445312 753.964844 414.085938 C 754.269531 413.925781 754.558594 413.996094 754.785156 414.242188 C 755.007812 414.488281 754.992188 414.84375 754.863281 415.070312 C 753.28125 417.410156 752.257812 419.128906 751.773438 420.699219 C 752.695312 421.09375 753.738281 421.496094 755.074219 421.851562 C 755.367188 421.925781 755.53125 422.226562 755.574219 422.523438 C 755.558594 422.875 755.3125 423.101562 755.015625 423.144531 C 753.648438 423.375 752.519531 423.617188 751.621094 423.988281 C 751.957031 425.59375 752.816406 427.398438 754.171875 429.878906 C 754.332031 430.179688 754.261719 430.472656 754.015625 430.695312 C 753.769531 430.917969 753.417969 430.902344 753.1875 430.773438 C 750.847656 429.191406 749.128906 428.171875 747.5625 427.683594 C 747.109375 428.546875 746.761719 429.648438 746.40625 430.988281 Z M 805.710938 435.820312 C 804.199219 434.160156 801.554688 433.976562 799.835938 435.546875 C 798.113281 437.113281 797.992188 439.699219 799.558594 441.421875 C 801.128906 443.144531 803.714844 443.261719 805.433594 441.695312 C 807.15625 440.128906 807.222656 437.480469 805.710938 435.820312 Z M 800.851562 440.246094 C 799.957031 439.261719 799.96875 437.671875 801.015625 436.71875 C 802.0625 435.765625 803.589844 435.839844 804.542969 436.882812 C 805.492188 437.929688 805.421875 439.457031 804.375 440.410156 C 803.332031 441.363281 801.746094 441.230469 800.851562 440.246094 Z M 734.546875 449.097656 C 733.148438 447.5625 730.679688 447.445312 729.140625 448.847656 C 727.605469 450.246094 727.488281 452.714844 728.890625 454.25 C 730.289062 455.789062 732.757812 455.902344 734.296875 454.503906 C 735.832031 453.105469 735.949219 450.636719 734.546875 449.097656 Z M 730.121094 453.132812 C 729.335938 452.269531 729.402344 450.859375 730.261719 450.074219 C 731.125 449.292969 732.535156 449.359375 733.316406 450.21875 C 734.101562 451.078125 734.035156 452.488281 733.175781 453.273438 C 732.3125 454.058594 730.902344 453.992188 730.121094 453.132812 Z M 786.703125 410.378906 C 785.964844 411.050781 784.90625 411 784.234375 410.261719 C 783.5625 409.523438 783.613281 408.464844 784.351562 407.792969 C 785.089844 407.121094 786.144531 407.171875 786.816406 407.910156 C 787.488281 408.648438 787.441406 409.707031 786.703125 410.378906 Z M 571.722656 222.621094 C 570.925781 223.347656 569.75 223.292969 569.023438 222.496094 C 568.292969 221.695312 568.347656 220.519531 569.148438 219.792969 C 569.949219 219.0625 571.121094 219.117188 571.851562 219.917969 C 572.578125 220.71875 572.523438 221.890625 571.722656 222.621094 Z M 531.957031 177.71875 C 530.277344 175.875 527.339844 175.734375 525.496094 177.417969 C 523.648438 179.097656 523.511719 182.035156 525.191406 183.878906 C 526.871094 185.722656 529.808594 185.863281 531.65625 184.179688 C 533.5 182.5 533.636719 179.5625 531.957031 177.71875 Z M 526.421875 182.757812 C 525.359375 181.589844 525.445312 179.710938 526.613281 178.644531 C 527.785156 177.582031 529.664062 177.671875 530.726562 178.839844 C 531.792969 180.007812 531.703125 181.886719 530.535156 182.953125 C 529.367188 184.015625 527.488281 183.925781 526.421875 182.757812 Z M 589.453125 134.359375 C 588.050781 132.820312 585.703125 132.710938 584.164062 134.113281 C 582.625 135.511719 582.515625 137.863281 583.917969 139.398438 C 585.316406 140.9375 587.667969 141.046875 589.203125 139.648438 C 590.796875 138.308594 590.851562 135.898438 589.453125 134.359375 Z M 585.148438 138.28125 C 584.363281 137.417969 584.421875 136.125 585.285156 135.34375 C 586.144531 134.558594 587.4375 134.617188 588.222656 135.480469 C 589.007812 136.339844 588.945312 137.632812 588.085938 138.417969 C 587.222656 139.203125 585.929688 139.140625 585.148438 138.28125 Z M 585.148438 138.28125 " fill-opacity="1" fill-rule="nonzero"/></g></g></g></svg>