<svg width="95" height="95" viewBox="0 0 95 95" fill="none" xmlns="http://www.w3.org/2000/svg">
<g opacity="0.65">
<path d="M35.138 67.1725C32.638 65.6186 29.9882 63.3755 28.6296 60.7223C27.7603 59.0248 28.0407 57.6823 29.389 56.3023C27.1531 54.2861 27.2697 52.324 28.9308 49.9122C26.1302 48.6124 23.59 48.6585 20.5751 49.4031C19.9231 49.5641 19.2961 49.8843 18.6461 50.0182C15.7256 50.6195 18.52 44.9544 18.969 44.1104C19.9041 42.3532 21.19 40.8442 22.4859 39.3482C26.9993 34.1381 30.7617 31.4371 38.1717 32.0353L39.6067 32.2209C40.7615 32.4126 40.4139 32.1986 41.3295 31.0819L42.8162 29.2996C47.9931 23.3492 54.3878 18.0405 61.6185 14.7966C66.211 12.7363 72.4111 10.9392 77.4151 10.5931C78.0355 10.5671 78.766 10.4906 79.3767 10.5924C82.4358 11.1025 81.9351 13.8884 82.03 16.272L82.1636 20.6459C82.163 21.595 82.1961 22.5594 82.1193 23.5055C81.099 36.0875 73.2778 46.8877 63.6476 54.5775L60.4581 56.8912L60.7951 57.912C63.1869 66.9062 56.2363 76.1883 47.564 78.4256C45.015 79.0832 45.8611 76.685 46.2421 75.3121C47.2178 71.7961 48.0701 68.4653 45.5537 65.4139L43.6982 66.2908C42.7442 66.6763 41.5762 66.538 40.6471 66.1364L40.4436 66.4296C39.1724 68.6808 37.0341 68.2496 35.138 67.1725ZM79.0177 12.9608C76.2938 13.1022 72.0119 13.6649 69.4092 14.6875C70.0071 15.4618 70.6791 16.1526 71.3687 16.8438L74.0632 19.3429L79.6222 23.2822C79.7001 22.6815 79.6738 22.0544 79.6744 21.4489L79.5527 17.4259C79.4783 15.9572 79.4573 14.4661 79.2981 13.0031C79.2018 12.9419 79.1273 12.9564 79.0177 12.9608ZM66.6835 15.4231C64.7472 16.1794 62.8434 16.8706 60.9847 17.8157C54.9875 20.8651 49.7763 25.2256 45.2693 30.1858L42.4662 33.4049C40.1811 36.2622 38.1342 39.2967 36.1563 42.3713L31.8354 49.6681C31.0692 51.0264 29.2653 52.8952 30.6902 54.1765C31.3531 54.7725 32.0958 55.2787 32.7722 55.8598L39.4036 61.9211C40.3366 62.8269 41.3403 64.377 42.723 64.0295L49.6471 60.797C62.4811 54.1372 75.7119 42.7926 79.0164 28.0719L79.4126 25.9807C74.3537 22.923 71.1117 20.5108 67.385 16.0309C67.176 15.7798 67.0381 15.3921 66.6835 15.4231ZM35.2103 34.421C29.3675 34.9355 27.0048 37.8276 23.4343 42.0534C22.1295 43.5974 21.1059 45.0579 20.363 46.9494C21.7366 46.6475 23.0669 46.4366 24.4784 46.4924C26.4639 46.5207 28.4326 46.9133 30.2823 47.6471L30.3092 47.5786C30.6759 46.6622 31.3417 45.7772 31.8455 44.9252C33.9429 41.3771 36.1365 37.8227 38.6126 34.5245C38.1116 34.4039 37.5931 34.4106 37.0812 34.4082L35.2103 34.421ZM31.1129 57.8541C30.8429 58.1409 30.6599 58.3712 30.533 58.7524C31.1196 60.5732 32.6276 62.0142 34.0262 63.2535C34.8463 63.9802 36.8462 65.7796 38.0603 65.6226C38.3191 65.4703 38.4429 65.084 38.5192 64.8044L38.5483 64.6761C37.5452 63.4143 36.2179 62.3354 35.0372 61.241L32.5345 58.9515C32.0779 58.5614 31.6303 58.1628 31.1129 57.8541ZM58.3855 58.4811L48.0462 64.2724C48.1346 64.4815 48.294 64.6729 48.4055 64.8731C50.2813 68.2423 49.7485 71.1225 49.023 74.6246L48.8193 75.4671C54.5748 73.7338 60.4559 65.0491 58.5587 58.924L58.3855 58.4811Z" fill="#FF80B4"/>
<path d="M59.5714 44.0833C59.0954 44.0742 58.6037 44.0871 58.1305 44.0318C48.3234 42.8852 48.3535 27.8375 59.0075 27.2488C66.7135 27.0339 70.4997 36.1704 65.4534 41.5489C63.8567 43.2507 61.8671 44.01 59.5714 44.0833ZM58.6581 29.7503C50.9689 30.7518 51.5472 42.1027 60.112 41.6494C61.7466 41.4266 63.0732 40.6728 64.0763 39.3527C67.3142 35.092 63.8575 29.3145 58.6581 29.7503ZM20.5608 81.8998C18.8074 82.6671 16.9706 83.2764 15.1507 83.8653C13.5955 84.3685 11.5016 85.1951 12.0587 82.4058L12.4275 80.678C13.6722 74.6945 16.1217 64.1788 23.412 63.3356C25.1872 63.1924 27.8347 63.5868 28.6241 65.4633C29.0498 66.4754 28.4524 67.8925 28.0794 68.8421C29.3871 68.0294 30.9059 65.9881 31.9778 68.3727C32.6205 69.8029 32.3634 71.8847 31.8074 73.3023C30.0717 77.7272 24.5853 80.1383 20.5608 81.8998ZM23.8758 65.7461C17.7834 66.5864 15.8184 76.3177 14.7569 81.4067L22.196 78.4872C25.5896 76.8997 29.614 74.5777 29.993 70.4436C29.024 71.2034 25.4257 73.6384 24.3763 72.1864C23.815 71.4097 24.4931 70.6765 24.8672 69.9974C25.4305 68.9749 26.0898 67.5995 26.1973 66.4283C25.7615 65.9639 25.3304 65.7509 24.6908 65.7293L23.8758 65.7461Z" fill="#FF80B4"/>
</g>
</svg>
