<svg width="80" height="80" viewBox="0 0 80 80" fill="none" xmlns="http://www.w3.org/2000/svg">
<g opacity="0.65" clip-path="url(#clip0_4589_5887)">
<path d="M56.6667 0C43.5833 0 33.3333 5.85667 33.3333 13.3333V27.9267C30.3133 27.1267 26.9367 26.6667 23.3333 26.6667C10.25 26.6667 0 32.5233 0 40V66.6667C0 74.1433 10.25 80 23.3333 80C36.4167 80 46.6667 74.1433 46.6667 66.6667V65.3833C49.7767 66.21 53.1833 66.6667 56.6667 66.6667C69.75 66.6667 80 60.81 80 53.3333V13.3333C80 5.85667 69.75 0 56.6667 0ZM56.6667 3.33333C67.5067 3.33333 76.6667 7.91333 76.6667 13.3333C76.6667 18.7533 67.5067 23.3333 56.6667 23.3333C45.8267 23.3333 36.6667 18.7533 36.6667 13.3333C36.6667 7.91333 45.8267 3.33333 56.6667 3.33333ZM23.3333 30C34.1733 30 43.3333 34.58 43.3333 40C43.3333 45.42 34.1733 50 23.3333 50C12.4933 50 3.33333 45.42 3.33333 40C3.33333 34.58 12.4933 30 23.3333 30ZM3.33333 46.9333C7.37667 50.7933 14.73 53.3333 23.3333 53.3333C31.9367 53.3333 39.29 50.7933 43.3333 46.9333V53.3333C43.3333 58.7533 34.1733 63.3333 23.3333 63.3333C12.4933 63.3333 3.33333 58.7533 3.33333 53.3333V46.9333ZM23.3333 76.6667C12.4933 76.6667 3.33333 72.0867 3.33333 66.6667V60.2667C7.37667 64.1267 14.73 66.6667 23.3333 66.6667C31.9367 66.6667 39.29 64.1267 43.3333 60.2667V66.6667C43.3333 72.0867 34.1733 76.6667 23.3333 76.6667ZM56.6667 63.3333C53.1433 63.3333 49.7133 62.8367 46.6667 61.9267V52.0533C49.7733 52.88 53.1767 53.33 56.6667 53.33C65.27 53.33 72.6233 50.79 76.6667 46.93V53.33C76.6667 58.75 67.5067 63.3333 56.6667 63.3333ZM56.6667 50C53.13 50 49.7133 49.4967 46.6667 48.5867V40C46.6667 39.5567 46.6267 39.12 46.5533 38.69C49.68 39.5367 53.0967 40 56.6667 40C65.27 40 72.6233 37.46 76.6667 33.6V40C76.6667 45.42 67.5067 50 56.6667 50ZM56.6667 36.6667C52.3033 36.6667 48.2067 35.9333 44.7133 34.5867C42.9867 32.31 40.1933 30.3833 36.6667 29V20.27C40.71 24.13 48.0633 26.67 56.6667 26.67C65.27 26.67 72.6233 24.13 76.6667 20.27V26.67C76.6667 32.09 67.5067 36.67 56.6667 36.67V36.6667Z" fill="#FF80B4"/>
</g>
<defs>
<clipPath id="clip0_4589_5887">
<rect width="80" height="80" fill="white"/>
</clipPath>
</defs>
</svg>
