<svg width="80" height="80" viewBox="0 0 80 80" fill="none" xmlns="http://www.w3.org/2000/svg">
<g opacity="0.65" clip-path="url(#clip0_4589_5903)">
<path d="M1.39993 10.3463C4.1266 15.5229 7.52326 21.9663 13.7133 25.1529C15.7266 26.1896 18.5033 26.6929 20.9999 26.6929C22.3366 26.6929 25.0633 26.4129 27.7099 24.6829C29.0233 27.2129 29.7733 29.6829 30.0099 31.8496C30.0999 32.6829 30.7966 33.3196 31.6366 33.3363H31.6666C32.4933 33.3363 33.1966 32.7296 33.3166 31.9096C33.5166 30.5263 34.5233 25.9463 38.7033 22.7963C39.7333 24.1063 41.0633 25.1829 42.6699 25.8529C43.9899 26.4029 45.3833 26.6763 46.7699 26.6763C48.4499 26.6763 50.1199 26.2763 51.6466 25.4863C55.5466 23.4596 59.2199 19.9296 62.5666 14.9896C63.3533 13.8263 63.5433 12.3996 63.0866 11.0796C62.6033 9.68628 61.4433 8.57628 59.9766 8.10295C55.5966 6.69628 49.0733 5.60628 42.8566 8.38628C38.0933 10.5163 35.6899 15.3896 37.0733 19.8463C34.5799 21.6129 32.9333 23.7763 31.8766 25.7929C31.4466 24.6929 30.8866 23.5696 30.2599 22.4396C30.6599 21.9696 31.0533 21.4696 31.4166 20.8896C33.2899 17.9063 33.8166 14.2129 32.8666 10.7496C31.9433 7.37961 29.7599 4.66295 26.7199 3.09961C16.7366 -2.04039 7.39993 0.612945 2.7166 2.64628C1.54326 3.16295 0.633264 4.12294 0.229931 5.28628C-0.156736 6.40628 -0.0600692 7.60628 0.506597 8.66294L1.39993 10.3429V10.3463ZM44.2233 11.4263C49.4666 9.07628 55.1366 10.0463 58.9666 11.2729C59.4433 11.4263 59.7999 11.7496 59.9399 12.1629C60.0199 12.3896 60.0599 12.7429 59.8099 13.1163C56.7799 17.5896 53.5133 20.7563 50.1133 22.5229C48.2299 23.4963 45.9266 23.5929 43.9533 22.7729C42.1133 22.0096 40.7899 20.5796 40.2199 18.7529C39.3433 15.9363 41.0266 12.8529 44.2233 11.4263ZM4.04993 5.70294C8.1866 3.89961 16.4399 1.54961 25.2033 6.05961C27.3999 7.18961 28.9866 9.16961 29.6599 11.6263C30.3633 14.1896 30.1299 16.9629 28.3566 19.4229C25.5433 15.5429 21.4533 11.7796 15.7699 8.81961C14.9666 8.39628 13.9499 8.71294 13.5233 9.52628C13.0966 10.3429 13.4166 11.3496 14.2333 11.7729C19.6533 14.5929 23.4599 18.1796 25.9966 21.8229C23.3933 23.5796 20.6399 23.3496 20.3399 23.3229C18.5033 23.3029 16.7633 22.9596 15.2399 22.1763C9.9866 19.4729 6.98993 13.7929 4.34993 8.77961L3.4466 7.07628C3.32326 6.84628 3.30326 6.60628 3.38326 6.36961C3.47993 6.08294 3.7266 5.83628 4.04993 5.69294V5.70294ZM77.2699 32.1796C75.6133 30.6729 73.4633 29.9296 71.2399 30.0063C69.0066 30.1129 66.9466 31.0796 65.4433 32.7329L53.0033 46.4063C51.9566 42.7129 48.5533 39.9963 44.5266 39.9963H11.6666C5.23326 39.9963 -6.92068e-05 45.2296 -6.92068e-05 51.6629V68.3296C-6.92068e-05 74.7629 5.23326 79.9963 11.6666 79.9963H31.5499C40.5699 79.9963 49.1866 76.1329 55.1933 69.3963L77.8799 43.9296C80.9166 40.5229 80.6433 35.2496 77.2699 32.1763V32.1796ZM75.3933 41.7163L52.7066 67.1796C47.3333 73.2096 39.6199 76.6663 31.5499 76.6663H11.6666C7.06993 76.6663 3.33326 72.9296 3.33326 68.3329V51.6663C3.33326 47.0696 7.06993 43.3329 11.6666 43.3329H44.5233C47.5399 43.3329 49.9999 45.7896 49.9999 48.8096C49.9999 51.5163 47.9833 53.8463 45.3399 54.2229L24.8033 56.6796C23.8899 56.7863 23.2366 57.6163 23.3466 58.5329C23.4533 59.4463 24.2866 60.1229 25.1999 59.9896L45.7733 57.5296C49.1799 57.0429 51.9266 54.5996 52.9266 51.4496L67.9133 34.9829C68.8166 33.9896 70.0566 33.4063 71.3999 33.3429C72.7399 33.2763 74.0333 33.7429 75.0266 34.6529C77.0566 36.5029 77.2199 39.6729 75.3933 41.7263V41.7163Z" fill="#FF80B4"/>
</g>
<defs>
<clipPath id="clip0_4589_5903">
<rect width="80" height="80" fill="white"/>
</clipPath>
</defs>
</svg>
