<svg width="80" height="80" viewBox="0 0 80 80" fill="none" xmlns="http://www.w3.org/2000/svg">
<g opacity="0.65" clip-path="url(#clip0_4589_5913)">
<path d="M40.0001 20C28.9701 20 20.0001 28.97 20.0001 40C20.0001 51.03 28.9701 60 40.0001 60C51.0301 60 60.0001 51.03 60.0001 40C60.0001 28.97 51.0301 20 40.0001 20ZM40.0001 56.6667C33.8734 56.6667 28.5634 53.3033 25.6701 48.3633L31.7501 42.44L34.2301 44.92C35.5334 46.2233 37.8034 46.2233 39.1068 44.92L46.6701 37.3567V43.3333C46.6701 44.2533 47.4168 45 48.3368 45C49.2568 45 50.0034 44.2533 50.0034 43.3333V35C50.0034 33.1633 48.5101 31.6667 46.6701 31.6667H38.3368C37.4168 31.6667 36.6701 32.4133 36.6701 33.3333C36.6701 34.2533 37.4168 35 38.3368 35H44.2901L36.5868 42.5633L34.1068 40.0833C32.7668 38.74 30.5701 38.74 29.2301 40.0833L24.2168 45.0967C23.6934 43.48 23.3368 41.79 23.3368 40C23.3368 30.81 30.8134 23.3333 40.0034 23.3333C49.1934 23.3333 56.6701 30.81 56.6701 40C56.6701 49.19 49.1934 56.6667 40.0034 56.6667H40.0001ZM77.5701 31.71C72.3968 23.6033 60.6401 10 40.0001 10C19.3601 10 7.59677 23.6067 2.43011 31.7167C-0.829893 36.8267 -0.829893 43.1767 2.43011 48.2833C7.60344 56.3967 19.3568 70 40.0001 70C60.6434 70 72.3968 56.3967 77.5701 48.2833C80.8301 43.1767 80.8301 36.8267 77.5701 31.71ZM74.7568 46.4967C69.9534 54.03 59.0434 66.67 39.9968 66.67C20.9501 66.67 10.0434 54.0267 5.24011 46.4933C2.68344 42.4867 2.68344 37.5133 5.24011 33.5067C10.0401 25.9733 20.9468 13.33 40.0001 13.33C59.0534 13.33 69.9534 25.9667 74.7601 33.4967C77.3168 37.5067 77.3168 42.4867 74.7601 46.49L74.7568 46.4967Z" fill="#FF80B4"/>
</g>
<defs>
<clipPath id="clip0_4589_5913">
<rect width="80" height="80" fill="white"/>
</clipPath>
</defs>
</svg>
