<svg width="628" height="162" viewBox="0 0 628 162" fill="none" xmlns="http://www.w3.org/2000/svg">
<path d="M8.32 127C8.32 112.664 8.32 98.1573 8.32 83.48C8.32 68.8027 8.32 54.296 8.32 39.96C13.6107 39.96 18.9013 39.96 24.192 39.96C29.568 39.96 34.8587 39.96 40.064 39.96C46.6347 39.96 52.352 41.24 57.216 43.8C62.08 46.2747 65.8773 49.7733 68.608 54.296C71.3387 58.8187 72.704 64.1093 72.704 70.168C72.704 76.1413 71.3387 81.3893 68.608 85.912C65.9627 90.4347 62.2933 93.9333 57.6 96.408C52.992 98.8827 47.744 100.12 41.856 100.12C39.9787 100.12 38.1013 100.12 36.224 100.12C34.432 100.12 32.5973 100.12 30.72 100.12C30.72 104.557 30.72 109.037 30.72 113.56C30.72 118.083 30.72 122.563 30.72 127C27.0507 127 23.3387 127 19.584 127C15.8293 127 12.0747 127 8.32 127ZM40.064 60.056C38.528 60.056 36.9493 60.056 35.328 60.056C33.792 60.056 32.256 60.056 30.72 60.056C30.72 63.4693 30.72 66.9253 30.72 70.424C30.72 73.8373 30.72 77.2507 30.72 80.664C32.4267 80.664 34.176 80.664 35.968 80.664C37.8453 80.664 39.6373 80.664 41.344 80.664C43.9893 80.664 46.1227 79.6827 47.744 77.72C49.4507 75.7573 50.304 73.3253 50.304 70.424C50.304 67.4373 49.408 64.9627 47.616 63C45.824 61.0373 43.3067 60.056 40.064 60.056ZM84.195 127C84.195 112.664 84.195 98.1573 84.195 83.48C84.195 68.8027 84.195 54.296 84.195 39.96C92.8137 39.96 101.518 39.96 110.307 39.96C119.096 39.96 127.8 39.96 136.419 39.96C136.419 43.2027 136.419 46.5307 136.419 49.944C136.419 53.3573 136.419 56.6853 136.419 59.928C131.47 59.928 126.478 59.928 121.443 59.928C116.494 59.928 111.544 59.928 106.595 59.928C106.595 62.0613 106.595 64.1947 106.595 66.328C106.595 68.376 106.595 70.4667 106.595 72.6C111.118 72.6 115.683 72.6 120.291 72.6C124.899 72.6 129.422 72.6 133.859 72.6C133.859 75.7573 133.859 78.9573 133.859 82.2C133.859 85.4427 133.859 88.6853 133.859 91.928C129.422 91.928 124.899 91.928 120.291 91.928C115.683 91.928 111.118 91.928 106.595 91.928C106.595 94.4027 106.595 96.92 106.595 99.48C106.595 102.04 106.595 104.557 106.595 107.032C111.544 107.032 116.494 107.032 121.443 107.032C126.478 107.032 131.47 107.032 136.419 107.032C136.419 110.275 136.419 113.603 136.419 117.016C136.419 120.429 136.419 123.757 136.419 127C127.8 127 119.096 127 110.307 127C101.518 127 92.8137 127 84.195 127ZM151.82 127C151.82 112.664 151.82 98.1573 151.82 83.48C151.82 68.8027 151.82 54.296 151.82 39.96C160.439 39.96 169.143 39.96 177.932 39.96C186.721 39.96 195.425 39.96 204.044 39.96C204.044 43.2027 204.044 46.5307 204.044 49.944C204.044 53.3573 204.044 56.6853 204.044 59.928C199.095 59.928 194.103 59.928 189.068 59.928C184.119 59.928 179.169 59.928 174.22 59.928C174.22 62.0613 174.22 64.1947 174.22 66.328C174.22 68.376 174.22 70.4667 174.22 72.6C178.743 72.6 183.308 72.6 187.916 72.6C192.524 72.6 197.047 72.6 201.484 72.6C201.484 75.7573 201.484 78.9573 201.484 82.2C201.484 85.4427 201.484 88.6853 201.484 91.928C197.047 91.928 192.524 91.928 187.916 91.928C183.308 91.928 178.743 91.928 174.22 91.928C174.22 94.4027 174.22 96.92 174.22 99.48C174.22 102.04 174.22 104.557 174.22 107.032C179.169 107.032 184.119 107.032 189.068 107.032C194.103 107.032 199.095 107.032 204.044 107.032C204.044 110.275 204.044 113.603 204.044 117.016C204.044 120.429 204.044 123.757 204.044 127C195.425 127 186.721 127 177.932 127C169.143 127 160.439 127 151.82 127ZM219.445 127C219.445 112.664 219.445 98.1573 219.445 83.48C219.445 68.8027 219.445 54.296 219.445 39.96C223.2 39.96 226.954 39.96 230.709 39.96C234.464 39.96 238.176 39.96 241.845 39.96C241.845 45.5067 241.845 51.1387 241.845 56.856C241.845 62.488 241.845 68.0773 241.845 73.624C246.197 68.0773 250.549 62.488 254.901 56.856C259.338 51.1387 263.733 45.5067 268.085 39.96C272.266 39.96 276.49 39.96 280.757 39.96C285.024 39.96 289.248 39.96 293.429 39.96C288.053 46.7867 282.592 53.6987 277.045 60.696C271.584 67.608 266.165 74.4773 260.789 81.304C266.421 88.8133 272.096 96.408 277.813 104.088C283.616 111.768 289.333 119.405 294.965 127C290.528 127 286.048 127 281.525 127C277.088 127 272.65 127 268.213 127C263.861 120.941 259.466 114.883 255.029 108.824C250.592 102.68 246.197 96.6213 241.845 90.648C241.845 96.6213 241.845 102.68 241.845 108.824C241.845 114.883 241.845 120.941 241.845 127C238.176 127 234.464 127 230.709 127C226.954 127 223.2 127 219.445 127ZM293.625 127C298.062 112.664 302.5 98.1573 306.937 83.48C311.46 68.8027 315.94 54.296 320.377 39.96C325.412 39.96 330.489 39.96 335.609 39.96C340.814 39.96 345.934 39.96 350.969 39.96C355.406 54.296 359.844 68.8027 364.281 83.48C368.804 98.1573 373.284 112.664 377.721 127C374.052 127 370.297 127 366.457 127C362.702 127 358.948 127 355.193 127C354.34 124.269 353.529 121.539 352.761 118.808C351.993 115.992 351.182 113.219 350.329 110.488C345.465 110.488 340.558 110.488 335.609 110.488C330.745 110.488 325.881 110.488 321.017 110.488C320.164 113.219 319.353 115.992 318.585 118.808C317.817 121.539 317.006 124.269 316.153 127C312.484 127 308.729 127 304.889 127C301.134 127 297.38 127 293.625 127ZM326.649 91.416C329.636 91.416 332.622 91.416 335.609 91.416C338.681 91.416 341.71 91.416 344.697 91.416C343.246 86.3813 341.753 81.304 340.217 76.184C338.681 71.064 337.188 65.9867 335.737 60.952C334.286 65.9867 332.75 71.064 331.129 76.184C329.593 81.304 328.1 86.3813 326.649 91.416ZM386.07 127C386.07 112.664 386.07 98.1573 386.07 83.48C386.07 68.8027 386.07 54.296 386.07 39.96C391.361 39.96 396.651 39.96 401.942 39.96C407.318 39.96 412.609 39.96 417.814 39.96C423.702 39.96 428.865 41.0267 433.302 43.16C437.739 45.208 441.195 48.1093 443.67 51.864C446.145 55.5333 447.382 59.8853 447.382 64.92C447.382 68.504 446.699 71.7467 445.334 74.648C443.969 77.5493 441.921 79.9813 439.19 81.944C442.774 84.0773 445.505 86.8507 447.382 90.264C449.259 93.592 450.198 97.304 450.198 101.4C450.198 106.52 448.875 111 446.23 114.84C443.67 118.68 440.043 121.667 435.35 123.8C430.742 125.933 425.323 127 419.094 127C413.633 127 408.129 127 402.582 127C397.035 127 391.531 127 386.07 127ZM424.982 67.096C424.982 64.8773 424.299 63.0853 422.934 61.72C421.569 60.2693 419.777 59.544 417.558 59.544C416.022 59.544 414.443 59.544 412.822 59.544C411.286 59.544 409.75 59.544 408.214 59.544C408.214 61.9333 408.214 64.408 408.214 66.968C408.214 69.4427 408.214 71.9173 408.214 74.392C409.75 74.392 411.286 74.392 412.822 74.392C414.443 74.392 416.022 74.392 417.558 74.392C419.777 74.392 421.569 73.752 422.934 72.472C424.299 71.1067 424.982 69.3147 424.982 67.096ZM427.798 99.352C427.798 96.9627 426.987 95.0853 425.366 93.72C423.83 92.2693 421.697 91.544 418.966 91.544C417.174 91.544 415.382 91.544 413.59 91.544C411.798 91.544 410.006 91.544 408.214 91.544C408.214 94.1893 408.214 96.8347 408.214 99.48C408.214 102.125 408.214 104.771 408.214 107.416C410.006 107.416 411.798 107.416 413.59 107.416C415.382 107.416 417.174 107.416 418.966 107.416C421.697 107.416 423.83 106.691 425.366 105.24C426.987 103.789 427.798 101.827 427.798 99.352ZM501.104 129.048C494.875 129.048 489.115 127.939 483.824 125.72C478.533 123.416 473.968 120.216 470.128 116.12C466.288 112.024 463.301 107.203 461.168 101.656C459.035 96.024 457.968 89.9227 457.968 83.352C457.968 76.7813 459.035 70.7227 461.168 65.176C463.301 59.6293 466.288 54.8507 470.128 50.84C473.968 46.744 478.533 43.5867 483.824 41.368C489.115 39.064 494.875 37.912 501.104 37.912C507.333 37.912 513.051 39.064 518.256 41.368C523.547 43.5867 528.112 46.744 531.952 50.84C535.877 54.8507 538.907 59.6293 541.04 65.176C543.173 70.7227 544.24 76.7813 544.24 83.352C544.24 89.9227 543.173 96.024 541.04 101.656C538.907 107.203 535.877 112.024 531.952 116.12C528.112 120.216 523.547 123.416 518.256 125.72C513.051 127.939 507.333 129.048 501.104 129.048ZM501.104 108.312C505.285 108.312 508.869 107.288 511.856 105.24C514.843 103.107 517.147 100.163 518.768 96.408C520.475 92.6533 521.328 88.3013 521.328 83.352C521.328 78.4027 520.475 74.0933 518.768 70.424C517.147 66.7547 514.843 63.896 511.856 61.848C508.869 59.7147 505.285 58.648 501.104 58.648C497.008 58.648 493.424 59.672 490.352 61.72C487.365 63.768 485.019 66.6693 483.312 70.424C481.691 74.0933 480.88 78.4027 480.88 83.352C480.88 88.3013 481.691 92.6533 483.312 96.408C485.019 100.163 487.365 103.107 490.352 105.24C493.424 107.288 497.008 108.312 501.104 108.312ZM546.679 39.96C550.86 39.96 555.042 39.96 559.223 39.96C563.49 39.96 567.714 39.96 571.895 39.96C574.284 43.9707 576.674 48.0667 579.063 52.248C581.452 56.344 583.842 60.3973 586.231 64.408C588.62 60.3973 591.01 56.344 593.399 52.248C595.788 48.0667 598.178 43.9707 600.567 39.96C604.663 39.96 608.802 39.96 612.983 39.96C617.164 39.96 621.303 39.96 625.399 39.96C621.218 46.872 616.994 53.8693 612.727 60.952C608.546 68.0347 604.364 75.032 600.183 81.944C604.535 89.368 608.93 96.8773 613.367 104.472C617.89 112.067 622.327 119.576 626.679 127C622.498 127 618.274 127 614.007 127C609.826 127 605.644 127 601.463 127C598.903 122.477 596.3 117.955 593.655 113.432C591.01 108.824 588.407 104.301 585.847 99.864C583.202 104.301 580.514 108.824 577.783 113.432C575.138 117.955 572.492 122.477 569.847 127C565.751 127 561.612 127 557.431 127C553.25 127 549.111 127 545.015 127C549.452 119.661 553.89 112.237 558.327 104.728C562.85 97.1333 567.33 89.6667 571.767 82.328C567.586 75.3307 563.404 68.2907 559.223 61.208C555.042 54.04 550.86 46.9573 546.679 39.96Z" fill="#FF80B4"/>
</svg>
